<svg width="596" height="732" viewBox="0 0 596 732" fill="none" xmlns="http://www.w3.org/2000/svg">
<path d="M163.5 33.5C130.026 56.674 142.844 145.407 122.437 165.389C85.9007 201.163 81.8411 233.892 77.7182 244.358C60.9092 306.202 61.5436 440.154 122.436 549C183.329 657.846 287.989 707.08 342.222 709.618C378.06 713.741 465.339 706.954 527.754 646.822C590.17 586.69 527.342 578.319 479.769 565.949C432.196 553.578 423.443 560.62 369.401 520.279C301.848 469.852 311.775 362.338 326.998 296.688C342.222 231.038 304.163 191.247 284.183 165.558C264.203 139.869 284.183 127.5 284.183 127.5C284.183 127.5 330.883 86.7033 309 44.9999C269.295 -30.6662 200.607 7.81138 163.5 33.5Z" fill="white" stroke="white"/>
<path d="M231.873 226.667C241.219 223.754 254.373 245.705 259.782 257.045C261.361 276.559 253.293 337.218 249.062 365.108C249.587 418.963 263.991 468.2 271.127 486.087C273.725 494.76 287.02 522.649 319.416 564.82C351.813 606.992 448.584 620.538 492.921 622.039C406.486 681.735 301.074 647.75 259.172 623.295C221.535 594.802 142.395 510.761 126.932 402.542C111.469 294.323 134.246 243.752 147.567 231.994C170.159 212.2 178.178 224.226 179.364 232.714C179.336 237.307 179.487 247.556 180.309 251.801C181.338 257.107 183.435 260.83 189.77 265.108C194.838 268.531 200.753 260.227 203.077 255.647C208.782 247.2 222.527 229.579 231.873 226.667Z" fill="#FF0000"/>
<path d="M212.467 170.45C211.576 177.237 214.179 179.303 215.593 179.488C240.158 186.843 258.771 229.43 265.007 249.804C263.699 246.048 258.184 235.993 246.594 225.824C232.106 213.114 222.739 223.568 217.941 227.255C213.144 230.942 203.505 245.214 198.151 253.143C193.867 259.486 188.942 255.391 187.015 252.55L188.687 239.825C187.66 234.513 183.071 222.178 172.93 215.329C162.789 208.48 141.035 226.115 131.426 235.789C147.81 195.131 175.976 181.211 188.011 179.333C193.116 177.24 194.422 172.118 194.437 169.819C195.639 147.54 198.053 101.604 198.088 96.0862C198.132 89.1886 212.611 64.3321 222.719 59.6135C232.828 54.8949 238.652 56.5194 241.264 62.9013C243.353 68.0067 230.398 75.5745 223.659 78.7202C216.394 86.7445 213.091 100.062 212.348 105.717L212.467 170.45Z" fill="#127B34"/>
<path d="M160.063 248.316C144.884 302.242 130.297 428.16 193.381 500.43C151.858 429.48 156.506 320.536 160.063 248.316Z" fill="#8D0000" fill-opacity="0.5"/>
</svg>
